<svg xmlns="http://www.w3.org/2000/svg" xmlns:xlink="http://www.w3.org/1999/xlink" id="Layer_1" width="11.125" height="7.211" x="0" y="0" enable-background="new 0 0 11.125 7.211" version="1.1" viewBox="0 0 11.125 7.211" xml:space="preserve"><g><path fill="#FFF" d="M5.25,4.586c-2.799,0-4.75-1.077-4.75-2.043S2.451,0.5,5.25,0.5S10,1.577,10,2.543S8.049,4.586,5.25,4.586z"/><path fill="#567B84" d="M5.25,1C7.886,1,9.5,1.999,9.5,2.543S7.886,4.086,5.25,4.086S1,3.087,1,2.543S2.614,1,5.25,1 M5.25,0 C2.351,0,0,1.139,0,2.543s2.351,2.543,5.25,2.543s5.25-1.139,5.25-2.543S8.149,0,5.25,0L5.25,0z"/></g></svg>